<?xml version="1.0" encoding="UTF-8" standalone="yes"?>
<svg version="1.2" width="1005px" height="1005px" fill-rule="evenodd" baseProfile="tiny-ps" xmlns="http://www.w3.org/2000/svg">
  <title>bimi-svg-tiny-12-ps</title>
  <g>
    <path fill="#2667ff" d="M 471.5,-0.5 C 491.833,-0.5 512.167,-0.5 532.5,-0.5C 686.508,12.2382 810.675,79.2382 905,200.5C 963.996,281.194 997.163,371.527 1004.5,471.5C 1004.5,491.5 1004.5,511.5 1004.5,531.5C 991.061,692.598 919.394,820.431 789.5,915C 711.108,968.631 624.442,998.465 529.5,1004.5C 511.167,1004.5 492.833,1004.5 474.5,1004.5C 331.8,993.899 213.3,935.232 119,828.5C 47.6016,742.853 7.76827,644.186 -0.5,532.5C -0.5,512.167 -0.5,491.833 -0.5,471.5C 15.2299,297.112 96.5632,163.278 243.5,70C 314.057,28.6459 390.057,5.14595 471.5,-0.5 Z"/>
  </g>
  <g>
    <path fill="#fdfdff" d="M 635.5,191.5 C 653.754,189.941 666.254,197.608 673,214.5C 673.925,231.212 673.592,247.879 672,264.5C 663.832,280.689 650.666,287.189 632.5,284C 619.939,279.441 612.439,270.608 610,257.5C 609.085,242.454 609.418,227.454 611,212.5C 615.717,201.27 623.883,194.27 635.5,191.5 Z"/>
  </g>
  <g>
    <path fill="#fdfdff" d="M 354.5,260.5 C 372.657,258.658 385.49,265.991 393,282.5C 393.942,299.553 393.609,316.553 392,333.5C 382.286,351.857 367.452,357.69 347.5,351C 339.02,346.525 333.52,339.691 331,330.5C 329.018,314.163 329.018,297.829 331,281.5C 335.605,270.72 343.438,263.72 354.5,260.5 Z"/>
  </g>
  <g>
    <path fill="#fefeff" d="M 631.5,374.5 C 637.13,373.708 642.797,373.375 648.5,373.5C 660.364,375.522 668.531,382.189 673,393.5C 674.29,485.83 674.623,578.164 674,670.5C 669.846,716.312 649.013,752.478 611.5,779C 556.163,814.437 497.163,821.771 434.5,801C 392.201,785.028 361.034,756.862 341,716.5C 334.494,700.473 330.827,683.806 330,666.5C 329.013,575.465 329.346,484.465 331,393.5C 339.215,376.143 352.715,369.643 371.5,374C 381.667,377.5 388.5,384.333 392,394.5C 392.333,416.833 392.667,439.167 393,461.5C 398.023,485.6 412.856,497.1 437.5,496C 456.147,492.684 467.647,481.851 472,463.5C 472.333,409.167 472.667,354.833 473,300.5C 481.294,280.547 495.794,273.713 516.5,280C 526.609,283.776 532.776,290.943 535,301.5C 535.333,355.833 535.667,410.167 536,464.5C 541.46,487.273 555.96,497.773 579.5,496C 595.082,492.747 605.249,483.58 610,468.5C 610.333,444.833 610.667,421.167 611,397.5C 613.819,386.184 620.653,378.518 631.5,374.5 Z"/>
  </g>
  <g>
    <path fill="#fcfcff" d="M 633.5,300.5 C 649.945,298.14 662.112,304.14 670,318.5C 673.682,337.627 666.182,350.127 647.5,356C 631.555,357.614 620.388,351.114 614,336.5C 610.823,319.184 617.323,307.184 633.5,300.5 Z"/>
  </g>
  <g>
    <path fill="#cad8ff" d="M 648.5,373.5 C 642.797,373.375 637.13,373.708 631.5,374.5C 634.526,372.981 637.859,372.315 641.5,372.5C 644.025,372.503 646.359,372.837 648.5,373.5 Z"/>
  </g>
</svg>