<?xml version="1.0" standalone="no"?>
<!DOCTYPE svg PUBLIC "-//W3C//DTD SVG 20010904//EN"
 "http://www.w3.org/TR/2001/REC-SVG-20010904/DTD/svg10.dtd">
<svg version="1.0" xmlns="http://www.w3.org/2000/svg"
 width="1024.000000pt" height="1024.000000pt" viewBox="0 0 1024.000000 1024.000000"
 preserveAspectRatio="xMidYMid meet">
<metadata>
Created by potrace 1.14, written by Peter Selinger 2001-2017
</metadata>
<g transform="translate(0.000000,1024.000000) scale(0.100000,-0.100000)"
fill="#000000" stroke="none">
<path d="M4695 9830 c-114 -10 -286 -29 -315 -36 -14 -3 -63 -12 -110 -20
-115 -18 -296 -56 -354 -73 -17 -5 -56 -16 -86 -24 -86 -24 -293 -89 -310 -98
-8 -4 -55 -22 -105 -39 -80 -29 -132 -50 -200 -80 -11 -5 -42 -19 -70 -31 -49
-21 -260 -125 -300 -147 -105 -58 -357 -213 -425 -261 -47 -33 -94 -66 -104
-73 -28 -19 -223 -174 -292 -233 -109 -93 -455 -434 -505 -499 -13 -16 -34
-41 -48 -55 -93 -99 -292 -371 -403 -551 -83 -136 -288 -523 -288 -544 0 -3
-13 -34 -29 -68 -16 -35 -39 -90 -52 -123 -13 -33 -27 -64 -31 -69 -4 -6 -8
-16 -8 -24 0 -8 -6 -28 -14 -45 -8 -18 -31 -84 -52 -147 -20 -63 -40 -124 -44
-135 -5 -11 -13 -40 -20 -65 -6 -25 -18 -70 -26 -100 -50 -183 -91 -405 -121
-655 -14 -109 -17 -224 -17 -520 -1 -440 11 -579 78 -915 33 -163 47 -219 113
-450 36 -125 141 -414 187 -514 12 -28 41 -89 62 -136 56 -121 203 -399 229
-430 6 -8 15 -22 19 -30 42 -92 303 -452 435 -600 103 -117 394 -406 521 -520
58 -51 161 -135 230 -186 69 -52 130 -97 135 -101 6 -5 44 -30 85 -57 41 -26
94 -61 118 -77 23 -16 45 -29 48 -29 3 0 18 -8 32 -19 15 -10 54 -33 87 -52
33 -18 80 -44 105 -57 132 -73 379 -189 485 -228 28 -10 61 -24 75 -31 14 -7
31 -13 38 -13 7 0 20 -4 30 -10 21 -11 173 -61 272 -89 41 -12 89 -26 106 -31
16 -6 50 -14 75 -20 24 -5 76 -17 114 -25 161 -37 362 -69 530 -85 61 -5 149
-15 196 -20 112 -13 537 -13 648 0 47 6 133 14 191 20 165 15 354 46 520 84
36 8 88 20 115 26 28 6 58 15 67 20 10 6 24 10 31 10 24 0 316 92 349 110 10
6 23 10 30 10 7 1 31 9 53 20 22 11 46 19 53 20 7 0 20 4 30 10 9 5 40 19 67
30 92 39 119 52 275 128 131 64 494 271 510 291 3 4 32 24 65 46 128 85 257
186 424 331 206 179 336 313 573 593 46 54 171 224 240 326 354 523 591 1093
724 1745 49 239 84 613 84 895 0 183 -24 574 -40 640 -5 22 -12 65 -15 95 -9
79 -38 227 -82 410 -34 144 -127 433 -190 595 -33 84 -50 125 -90 215 -30 69
-161 327 -185 366 -13 21 -28 46 -32 54 -8 18 -16 30 -87 145 -121 194 -266
391 -412 560 -148 171 -487 501 -647 629 -57 46 -56 45 -115 89 -27 20 -54 40
-60 45 -64 51 -350 232 -475 301 -51 28 -379 191 -425 211 -86 38 -126 53
-240 95 -71 25 -137 51 -146 55 -9 5 -34 12 -55 16 -22 3 -43 10 -49 14 -5 4
-30 12 -55 18 -25 6 -72 18 -105 27 -274 74 -491 112 -840 145 -111 10 -655
10 -780 0z m1913 -1385 c88 -31 142 -79 197 -175 19 -33 20 -53 20 -300 l0
-265 -30 -54 c-36 -66 -106 -128 -171 -153 -125 -47 -287 0 -360 104 -64 91
-64 88 -64 363 0 229 2 257 20 297 27 62 89 129 146 157 27 13 56 28 64 32 25
13 133 10 178 -6z m-2814 -754 c84 -44 142 -116 170 -213 23 -80 23 -416 0
-496 -16 -54 -69 -138 -110 -173 -72 -63 -234 -82 -328 -39 -61 27 -125 91
-157 155 -24 49 -24 54 -24 310 0 253 1 261 23 305 43 83 118 146 202 171 47
14 182 2 224 -20z m1453 -184 c58 -30 113 -86 145 -147 l23 -45 5 -905 5 -905
33 -68 c40 -80 109 -153 177 -186 28 -13 58 -28 69 -33 24 -13 198 -13 222 0
11 5 41 20 68 33 68 33 138 107 176 183 l31 64 -1 358 c0 300 2 369 16 426 9
37 21 68 25 68 5 0 9 5 9 11 0 20 62 90 102 115 21 14 52 27 68 31 17 3 33 10
36 14 8 14 105 10 153 -6 106 -37 185 -118 216 -223 23 -73 22 -2921 0 -3073
-9 -57 -20 -117 -25 -134 -5 -16 -16 -55 -25 -85 -27 -95 -89 -236 -143 -325
-185 -308 -501 -567 -867 -711 -329 -128 -748 -155 -1115 -70 -108 25 -153 37
-187 52 -17 8 -36 14 -42 14 -6 0 -19 4 -29 9 -9 5 -66 32 -125 60 -331 155
-632 446 -780 753 -36 75 -86 209 -103 278 -43 167 -43 175 -44 1723 0 1034 3
1490 11 1520 21 84 122 188 197 203 18 3 35 10 38 15 7 12 121 11 129 -1 3 -5
16 -10 27 -10 47 0 125 -62 177 -140 l36 -55 6 -385 c5 -385 8 -419 45 -490
44 -88 96 -141 184 -188 112 -61 264 -59 390 4 49 25 141 120 168 175 46 91
46 83 52 1014 l5 890 38 57 c37 54 75 91 127 118 69 37 201 35 277 -3z m1398
-239 c105 -52 172 -168 163 -280 -8 -96 -59 -176 -149 -234 -40 -26 -53 -28
-135 -29 -106 0 -144 15 -212 83 -64 66 -82 111 -82 209 0 46 4 83 9 83 5 0
12 12 15 26 4 14 12 32 19 41 32 40 83 85 111 100 67 36 190 36 261 1z"/>
</g>
</svg>
