<?xml version="1.0" standalone="no"?>
<!DOCTYPE svg PUBLIC "-//W3C//DTD SVG 20010904//EN"
 "http://www.w3.org/TR/2001/REC-SVG-20010904/DTD/svg10.dtd">
<svg version="1.0" xmlns="http://www.w3.org/2000/svg"
 width="1024.000000pt" height="1024.000000pt" viewBox="0 0 1024.000000 1024.000000"
 preserveAspectRatio="xMidYMid meet">
<metadata>
Created by potrace 1.14, written by Peter Selinger 2001-2017
</metadata>
<g transform="translate(0.000000,1024.000000) scale(0.100000,-0.100000)"
fill="#000000" stroke="none">
<path d="M4750 9829 c-47 -5 -130 -14 -185 -19 -202 -20 -425 -60 -640 -114
-120 -30 -150 -38 -170 -46 -11 -4 -54 -17 -95 -30 -41 -12 -84 -25 -95 -30
-11 -4 -49 -18 -85 -31 -36 -12 -69 -26 -75 -31 -5 -4 -15 -8 -23 -8 -7 0 -34
-9 -60 -21 -49 -21 -102 -44 -137 -59 -77 -32 -372 -181 -455 -230 -55 -33
-102 -60 -104 -60 -8 0 -225 -149 -322 -220 -192 -142 -410 -332 -574 -501
-187 -191 -300 -318 -387 -434 -48 -64 -84 -111 -96 -125 -34 -41 -173 -259
-237 -370 -101 -178 -254 -487 -300 -610 -10 -25 -36 -97 -60 -160 -23 -63
-46 -124 -50 -135 -5 -11 -14 -38 -20 -60 -6 -22 -18 -62 -26 -90 -85 -284
-145 -589 -175 -890 -14 -140 -7 -919 9 -990 6 -27 16 -84 21 -125 20 -145 46
-278 85 -435 8 -33 20 -80 26 -105 6 -25 15 -56 19 -70 5 -14 19 -59 31 -100
26 -90 48 -154 66 -197 8 -17 14 -35 14 -40 0 -9 93 -250 109 -281 5 -9 52
-105 105 -212 53 -107 101 -202 106 -210 5 -8 30 -51 56 -95 115 -197 315
-477 453 -636 178 -204 569 -576 741 -705 158 -119 409 -284 550 -363 66 -37
391 -198 445 -221 11 -5 40 -18 65 -28 111 -48 417 -154 480 -167 19 -4 41
-11 50 -16 8 -4 38 -13 65 -19 133 -30 161 -37 175 -43 24 -10 280 -52 405
-67 50 -6 117 -15 150 -21 89 -16 706 -23 855 -10 159 14 331 36 440 55 78 14
120 23 285 58 33 7 65 16 70 20 6 3 31 9 58 13 26 4 50 11 53 16 3 5 14 9 24
9 19 0 305 91 345 110 11 5 45 19 75 30 30 11 64 25 75 30 11 5 43 19 70 30
122 53 404 190 430 210 6 4 33 20 60 35 81 45 87 49 145 85 88 55 251 166 287
195 7 6 42 33 79 60 282 211 630 555 856 845 64 83 84 109 98 130 8 12 22 32
31 44 94 123 263 404 363 601 86 168 120 245 180 395 10 25 22 54 27 65 50
113 167 523 208 725 77 382 86 474 86 950 0 440 -3 477 -51 770 -22 132 -91
442 -114 510 -4 14 -18 59 -30 100 -13 41 -34 107 -47 145 -13 39 -29 86 -35
105 -5 19 -14 39 -19 44 -5 6 -9 16 -9 24 0 7 -9 34 -21 60 -31 70 -45 103
-60 141 -19 48 -171 353 -210 421 -69 123 -86 151 -182 295 -89 134 -260 366
-309 420 -171 186 -518 533 -601 600 -127 104 -345 264 -412 305 -22 13 -42
26 -45 29 -3 4 -14 11 -25 18 -11 7 -60 36 -110 66 -163 97 -398 220 -530 277
-27 11 -59 25 -70 30 -87 39 -116 50 -127 50 -8 0 -18 4 -24 8 -5 5 -38 19
-74 31 -36 13 -74 27 -85 31 -11 5 -54 18 -95 30 -41 11 -82 25 -90 29 -9 5
-36 12 -60 16 -24 4 -51 11 -60 16 -15 8 -63 20 -175 43 -33 7 -67 15 -75 19
-15 6 -88 18 -230 37 -41 6 -97 15 -125 21 -150 29 -773 47 -955 28z m1897
-1389 c61 -27 128 -94 163 -163 l30 -60 0 -243 c0 -270 -3 -289 -67 -374 -71
-93 -169 -137 -290 -128 -117 8 -212 78 -271 198 -26 54 -27 59 -30 272 -4
247 4 293 65 385 48 72 112 116 196 133 57 11 153 2 204 -20z m-2843 -745 c61
-31 113 -83 149 -150 21 -38 22 -56 25 -298 3 -256 3 -258 -21 -312 -34 -72
-97 -139 -166 -172 -48 -24 -68 -28 -137 -27 -67 0 -90 5 -136 27 -62 30 -125
93 -160 159 -22 42 -23 50 -23 313 l0 270 33 55 c55 89 77 109 177 152 65 29
184 21 259 -17z m1450 -180 c64 -32 109 -79 146 -152 l25 -48 5 -905 c5 -904
5 -905 27 -952 29 -64 85 -135 133 -170 124 -92 326 -91 452 1 47 35 122 136
140 190 8 24 14 165 17 431 6 387 6 396 29 438 53 99 136 163 234 181 147 27
292 -48 354 -184 l24 -52 3 -1529 2 -1529 -22 -95 c-70 -302 -189 -527 -394
-744 -169 -178 -347 -305 -566 -400 -139 -62 -219 -87 -414 -130 -183 -41
-530 -39 -738 4 -83 17 -124 28 -226 57 -11 3 -58 21 -105 41 -307 124 -548
306 -745 560 -133 171 -216 347 -278 592 -21 85 -21 87 -24 1625 l-4 1539 30
61 c53 107 125 164 234 184 146 27 287 -47 352 -184 l25 -54 0 -353 c0 -283 3
-365 15 -412 30 -116 109 -215 212 -267 65 -33 73 -34 178 -34 87 0 120 4 155
19 107 46 193 137 233 247 16 41 18 127 20 930 l2 884 34 63 c67 124 169 184
301 179 59 -2 87 -9 134 -32z m1390 -236 c61 -28 113 -80 146 -145 35 -68 35
-188 1 -253 -81 -155 -258 -215 -411 -138 -54 27 -72 42 -107 94 -56 84 -70
151 -49 233 30 117 111 202 221 231 51 14 146 3 199 -22z"/>
</g>
</svg>
